<?xml version="1.0" encoding="utf-8"?>
<!-- Generator: Adobe Illustrator 17.0.0, SVG Export Plug-In . SVG Version: 6.00 Build 0)  -->
<!DOCTYPE svg PUBLIC "-//W3C//DTD SVG 1.1//EN" "http://www.w3.org/Graphics/SVG/1.1/DTD/svg11.dtd">
<svg version="1.1" id="Layer_1" xmlns="http://www.w3.org/2000/svg" xmlns:xlink="http://www.w3.org/1999/xlink" x="0px" y="0px"
	 width="34px" height="34px" viewBox="0 0 34 34" enable-background="new 0 0 34 34" xml:space="preserve">
<g>
	<circle fill="#62B746" cx="17" cy="17" r="17"/>
</g>
<g>
	<path fill="#FFFFFF" d="M17,21.479c-0.381,0-0.762-0.144-1.054-0.433l-3.385-3.344c-0.589-0.583-0.595-1.532-0.013-2.122
		c0.582-0.589,1.532-0.595,2.122-0.013l3.385,3.344c0.589,0.583,0.595,1.532,0.013,2.122C17.774,21.33,17.387,21.479,17,21.479z"/>
</g>
<g>
	<path fill="#FFFFFF" d="M16.999,21.479c-0.3,0-0.603-0.089-0.866-0.276c-0.676-0.479-0.835-1.415-0.356-2.091l7.077-9.986
		c0.479-0.676,1.414-0.836,2.091-0.356c0.676,0.479,0.835,1.415,0.356,2.091l-7.077,9.986
		C17.932,21.259,17.469,21.479,16.999,21.479z"/>
</g>
</svg>
